<svg id="Layer_1" data-name="Layer 1" xmlns="http://www.w3.org/2000/svg" viewBox="0 0 1080 1080"><defs><style>.cls-1,.cls-11{fill:none;}.cls-1{stroke:#2b7138;stroke-linecap:round;stroke-linejoin:round;stroke-width:20px;stroke-dasharray:50 40;}.cls-2{font-size:22px;}.cls-10,.cls-2,.cls-3,.cls-9{fill:#fff;}.cls-2,.cls-4,.cls-5{font-family:Poppins-SemiBold, Poppins;font-weight:600;}.cls-3{font-size:14px;}.cls-3,.cls-6{font-family:Poppins-Regular, Poppins;}.cls-4{letter-spacing:0em;}.cls-6{font-weight:400;}.cls-7{fill:#2b7138;}.cls-8{fill:#fcfdff;}.cls-10{fill-rule:evenodd;}.cls-11{stroke:#fff;stroke-miterlimit:10;}</style></defs><path class="cls-1" d="M700.38,124.19c0,106.23-339.93,106.23-339.93,212.45S700.38,442.87,700.38,549.09,360.45,655.32,360.45,761.55,700.38,867.78,700.38,974"/><text class="cls-2" transform="translate(764.9 124.7) scale(0.94 1)">Pilih dan Cek <tspan x="0" y="26.4">Ketersediaan Alat</tspan></text><text class="cls-3" transform="translate(766.18 174.22) scale(0.94 1)">List pilihan alat yang sudah di cek<tspan x="0" y="16.8">melalui link website, lalu hubungi via</tspan><tspan x="0" y="33.6">Whatsapp</tspan></text><text class="cls-2" transform="translate(731.27 588.49) scale(0.94 1)">Pengambilan <tspan x="0" y="26.4">Peralatan</tspan></text><text class="cls-3" transform="translate(732.56 638.01) scale(0.94 1)">Pengambilan barang yang disewa hanya<tspan x="0" y="16.8">bisa langsung di lokasi, dengan menyerahkan</tspan><tspan x="0" y="33.6">identitas serta cek kelengkapan alat yang</tspan><tspan x="0" y="50.4">disewa</tspan></text><text class="cls-2" transform="translate(114.98 356.97) scale(0.94 1)">Konfirmasi Pesanan<tspan x="28.91" y="26.4">dan Pembayaran</tspan></text><text class="cls-3" transform="translate(67.72 406.49) scale(0.94 1)">Terima struk dan lakukan pembayaran <tspan x="8.47" y="16.8">DP dan kirim bukti pembayaran untuk </tspan><tspan x="98.87" y="33.6">konfirmasi (</tspan><tspan class="cls-4" x="182" y="33.6">Jika booking </tspan><tspan class="cls-5"><tspan x="123.1" y="50.4">online via Whatsapp</tspan><tspan class="cls-6" x="270.02" y="50.4">)</tspan></tspan></text><text class="cls-2" transform="translate(130.61 815.05) scale(0.94 1)">Pengembalian dan <tspan x="-9.99" y="26.4">Cek Ulang Peralatan</tspan></text><text class="cls-3" transform="translate(43.92 864.57) scale(0.94 1)">Pengembalian barang tidak boleh lebih dari <tspan x="48.26" y="16.8">durasi yang telah disewa, selanjutnya</tspan><tspan x="34.93" y="33.6">pengecekan bersama tim untuk perihal</tspan><tspan x="39.66" y="50.4">kondisi barang (</tspan><tspan class="cls-5" x="154.32" y="50.4">Jika terjadi kerusakan</tspan><tspan class="cls-5"><tspan x="63.21" y="67.2">/hilang tanggung jawab penyewa</tspan><tspan class="cls-6" x="306.43" y="67.2">)</tspan></tspan></text><circle class="cls-7" cx="697" cy="151.72" r="42.62"/><path class="cls-8" d="M702.49,154.27l1.82,11.82L723,159.4a68.11,68.11,0,0,0-3.46-7.93l-1.37-2.15C714.44,150.7,705.35,153.39,702.49,154.27Z"/><path class="cls-8" d="M701.65,154.54l-.18,0a101.06,101.06,0,0,1,1.72,12l.52-.19-1.82-11.85Z"/><path class="cls-8" d="M675.86,149.46c-2.46,5.93-3.71,11.58-4,12l5,.81c.35-.9,1.84-7.54,4.88-11.6C679.36,150.2,677.25,149.76,675.86,149.46Z"/><path class="cls-8" d="M692.14,152.74a48.63,48.63,0,0,1,2.61,12.41l8.44,1.35a101.06,101.06,0,0,0-1.72-12C700.16,154.29,696.44,153.58,692.14,152.74Z"/><path class="cls-8" d="M724.69,157.91l-5.89-9c-.18.07-.38.26-.6.34l1.29,2.2,4.84,7.79v1.47h1.1v-2.76Z"/><path class="cls-8" d="M669.58,160.12h-1v2.2h1.11v-1.46L675,149.31c-.25-.05-.38-.16-.55-.2Z"/><path class="cls-8" d="M701.89,154.46l1.82,11.62.22,1.21h-.58v2.76H705v-2.76h-.44l-.25-1.42-1.82-11.71A6.61,6.61,0,0,0,701.89,154.46Z"/><path class="cls-8" d="M692.14,152.74c4.3.84,8,1.55,9.33,1.77l.18,0,.24-.08.6-.19c2.86-.88,12-3.57,15.71-5l.6-.23c.3-.12.62-.22.8-.31-12.73-21-30.06-14.8-33.37-13.55h0c-6.07,1.65-9,7.82-11.66,13.92l0,0,.6.14.66.15c1.39.3,3.49.74,5.92,1.23C685,151.34,688.74,152.08,692.14,152.74Z"/><circle class="cls-7" cx="391.09" cy="381.73" r="42.62"/><rect class="cls-9" x="363.73" y="369.41" width="54.72" height="24.64"/><path class="cls-7" d="M410.5,371H371.68a6.48,6.48,0,0,1-6.48,6.49v8.42a6.49,6.49,0,0,1,6.46,5.95h38.87a6.48,6.48,0,0,1,6.46-5.95v-8.42A6.49,6.49,0,0,1,410.5,371ZM391.09,389.1a7.64,7.64,0,1,1,7.64-7.64A7.64,7.64,0,0,1,391.09,389.1Z"/><path class="cls-10" d="M417,377.52V371H410.5A6.49,6.49,0,0,0,417,377.52Z"/><path class="cls-10" d="M410.53,391.89a4.89,4.89,0,0,0,0,.54H417v-6.49A6.48,6.48,0,0,0,410.53,391.89Z"/><circle class="cls-9" cx="391.09" cy="381.46" r="7.64"/><circle class="cls-7" cx="654.38" cy="607.36" r="42.62"/><rect class="cls-9" x="627.31" y="591.02" width="54.14" height="32.67" rx="5.6"/><circle class="cls-7" cx="640.54" cy="602.75" r="4.54"/><path class="cls-7" d="M647.5,613.93c0,2.84-3.11,3.78-7,3.78s-6.95-.94-6.95-3.78,3.11-5.14,6.95-5.14S647.5,611.1,647.5,613.93Z"/><rect class="cls-7" x="654.25" y="602.75" width="22.17" height="2.62" rx="1.31"/><rect class="cls-7" x="654.39" y="605.97" width="17.13" height="2.62" rx="1.31"/><circle class="cls-7" cx="426.96" cy="833.91" r="42.62"/><path class="cls-11" d="M449.41,819.09,428.5,808.48a3.28,3.28,0,0,0-3,0l-21,10.51a1.63,1.63,0,0,0-.92,1.48h0l-.06,26.17a1.66,1.66,0,0,0,.92,1.49l20.91,10.6a3.26,3.26,0,0,0,1.48.36,3.32,3.32,0,0,0,1.48-.35l21-10.51a1.65,1.65,0,0,0,.92-1.48l.06-26.17A1.66,1.66,0,0,0,449.41,819.09Z"/><path class="cls-9" d="M450.3,820.52v26.17a1.66,1.66,0,0,1-.92,1.49l-20.94,10.56a3.35,3.35,0,0,1-1.48.35V820.52Z"/><path class="cls-9" d="M449.38,822l-20.94,10.56a3.28,3.28,0,0,1-3,0l-7.85-4-6.1-3.07-7-3.53a1.66,1.66,0,0,1,0-3l20.94-10.56a3.28,3.28,0,0,1,3,0L449.38,819A1.66,1.66,0,0,1,449.38,822Z"/><polygon class="cls-7" points="417.63 828.61 417.63 841.08 411.53 838.01 411.53 825.54 417.63 828.61"/><polygon class="cls-7" points="443.61 815.62 417.56 828.85 411.3 825.67 437.35 812.44 443.61 815.62"/></svg>