<svg xmlns="http://www.w3.org/2000/svg" xmlns:xlink="http://www.w3.org/1999/xlink" id="Layer_1" data-name="Layer 1" viewBox="143.89 144.52 791.57 791.57"><defs><style>.cls-1{fill:url(#Degradado_sin_nombre_3);}.cls-2{fill:#fff;}</style><radialGradient id="Degradado_sin_nombre_3" cx="57.4" cy="1213.52" r="1650.23" gradientUnits="userSpaceOnUse"><stop offset="0" stop-color="#f7ed43"/><stop offset="0.24" stop-color="#f58341"/><stop offset="0.4" stop-color="#eb5569"/><stop offset="0.49" stop-color="#e7407b"/><stop offset="1" stop-color="#3b56a6"/></radialGradient></defs><rect class="cls-1" x="143.89" y="144.52" width="791.57" height="791.57" rx="229.93"/><path class="cls-2" d="M626.22,763.53H453.13c-75.37,0-136.69-61.32-136.69-136.69V453.76c0-75.37,61.32-136.69,136.69-136.69H626.22c75.37,0,136.69,61.32,136.69,136.69V626.84C762.91,702.21,701.59,763.53,626.22,763.53Zm-173.09-413A103.37,103.37,0,0,0,349.87,453.76V626.84A103.37,103.37,0,0,0,453.13,730.1H626.22A103.38,103.38,0,0,0,729.48,626.84V453.76A103.38,103.38,0,0,0,626.22,350.5Z"/><path class="cls-2" d="M539.67,653.24A112.94,112.94,0,1,1,652.61,540.3,113.07,113.07,0,0,1,539.67,653.24Zm0-191.64a78.7,78.7,0,1,0,78.71,78.7A78.79,78.79,0,0,0,539.67,461.6Z"/><path class="cls-2" d="M694.3,415.08a29.41,29.41,0,1,1-29.4-29.41A29.4,29.4,0,0,1,694.3,415.08Z"/></svg>