<svg xmlns="http://www.w3.org/2000/svg" viewBox="0 0 16 16"><defs><style>.cls-1,.cls-2{fill:#2a7138;}.cls-2{font-size:1.16px;font-family:Poppins-Bold, Poppins;font-weight:700;}</style></defs><g id="Layer_3" data-name="Layer 3"><path class="cls-1" d="M1.85,8.94l-.8-1v1H.48V6.58h.57v1l.79-1h.68L1.6,7.74l.95,1.2Z"/><path class="cls-1" d="M4.29,8.53H3.41l-.14.41h-.6l.85-2.36h.67L5,8.94H4.43Zm-.14-.45-.3-.86-.29.86Z"/><path class="cls-1" d="M9,6,8,8.7a.31.31,0,0,1-.31.24H7.61a.46.46,0,0,1-.45-.35h0l-.27-.65A.09.09,0,0,0,6.7,8l-.17.76a.29.29,0,0,1-.29.23h0a.64.64,0,0,1-.61-.43L4.49,5.09a.09.09,0,0,1,0-.12l.63-.28s-.43.4-.37.54l1.08,2.5a.1.1,0,0,0,.19-.05L5.93,6.41a.11.11,0,0,1,0-.09l.07,0s0,0,0,0L6.13,6a.1.1,0,0,1,.18,0l.18.37a.12.12,0,0,0,0,0l.08,0s0,0,0,0l.81,1.36a.1.1,0,0,0,.08,0h0a.11.11,0,0,0,.1-.12l-.06-.27a.09.09,0,0,1,.16-.09l.21.2a.09.09,0,0,0,.15,0Z"/><path class="cls-1" d="M9.78,6.58V8a.44.44,0,0,0,.11.32.39.39,0,0,0,.31.12.41.41,0,0,0,.31-.12.44.44,0,0,0,.1-.32V6.58h.58V8a1,1,0,0,1-.14.54,1,1,0,0,1-.36.33,1.18,1.18,0,0,1-.5.11,1.12,1.12,0,0,1-.5-.11.75.75,0,0,1-.35-.33A1,1,0,0,1,9.21,8V6.58Z"/><path class="cls-1" d="M12.17,8.5h.75v.44H11.59V6.58h.58Z"/><path class="cls-1" d="M13.7,8.81a1.13,1.13,0,0,1-.44-.43,1.17,1.17,0,0,1-.16-.62,1.23,1.23,0,0,1,.16-.63,1.28,1.28,0,0,1,1.67-.43,1.18,1.18,0,0,1,.43.43,1.23,1.23,0,0,1,.16.63,1.17,1.17,0,0,1-.16.62,1.07,1.07,0,0,1-.44.43,1.13,1.13,0,0,1-.61.16A1.18,1.18,0,0,1,13.7,8.81Zm1.07-.56a.71.71,0,0,0,.17-.49.72.72,0,0,0-.17-.5.59.59,0,0,0-.46-.19.58.58,0,0,0-.45.18.72.72,0,0,0-.17.51.71.71,0,0,0,.17.5.58.58,0,0,0,.45.18A.59.59,0,0,0,14.77,8.25Z"/><text class="cls-2" transform="translate(6.23 10.61)">CAMP</text></g></svg>