<svg xmlns="http://www.w3.org/2000/svg" viewBox="0 0 1080 1080"><defs><style>.cls-1,.cls-2{fill:#2a7138;}.cls-2{font-size:56.74px;font-family:Poppins-Bold, Poppins;font-weight:700;}</style></defs><g id="Layer_3" data-name="Layer 3"><path class="cls-1" d="M240.27,586l-38.69-50.82V586h-28V470.92h28v50.49l38.36-50.49h32.95L228.3,527.31,274.53,586Z"/><path class="cls-1" d="M359.44,565.67H316.49L309.61,586H280.27L321.9,470.92h32.46L396,586H366.33ZM352.23,544,338,501.9,323.87,544Z"/><path class="cls-1" d="M588.38,442.05,540,574.28A15.69,15.69,0,0,1,524.86,586h-3.68a23.06,23.06,0,0,1-22.33-17.32,4.1,4.1,0,0,0-.2-.59l-13.24-31.44a4.68,4.68,0,0,0-8.89.84l-8,37.26A14.89,14.89,0,0,1,454.07,586h0a31,31,0,0,1-29.43-21.17L368.77,398.25a4.68,4.68,0,0,1,2.51-5.75l30.86-14s-21.07,20-18.21,26.53l53,121.66a4.68,4.68,0,0,0,8.94-2.37l-6.6-61.75a4.69,4.69,0,0,1,1.91-4.28l3.1-2.25a4.67,4.67,0,0,0,1.75-2.52l2.76-9.8a4.68,4.68,0,0,1,8.7-.81l9.11,18.31a4.64,4.64,0,0,0,2.17,2.14l4,1.94a4.69,4.69,0,0,1,2,1.82l39.38,66a4.7,4.7,0,0,0,4.09,2.29h0a4.68,4.68,0,0,0,4.5-5.66L520,516.42a4.68,4.68,0,0,1,7.83-4.34l10.32,10a4.68,4.68,0,0,0,7.37-1.13Z"/><path class="cls-1" d="M627,470.92v68.85q0,10.34,5.09,15.9T647,561.25q9.84,0,15.09-5.58t5.24-15.9V470.92h28v68.69q0,15.4-6.55,26.06a42,42,0,0,1-17.63,16.07,55.35,55.35,0,0,1-24.67,5.41,54.06,54.06,0,0,1-24.34-5.33,39.67,39.67,0,0,1-17-16.06q-6.23-10.74-6.23-26.15V470.92Z"/><path class="cls-1" d="M743,564.36h36.72V586H715V470.92h28Z"/><path class="cls-1" d="M817.85,579.61a56.36,56.36,0,0,1-21.48-21.07,62,62,0,0,1,0-60.73,56.58,56.58,0,0,1,21.48-21,62.48,62.48,0,0,1,59.51,0,55.51,55.51,0,0,1,21.31,21,62.83,62.83,0,0,1-.09,60.73,55.92,55.92,0,0,1-21.31,21.07,62.3,62.3,0,0,1-59.42,0Zm51.8-27.21q8.28-9.18,8.28-24.27t-8.28-24.34q-8.28-9.1-22-9.1-13.94,0-22.21,9t-8.28,24.42q0,15.25,8.28,24.35t22.21,9.1Q861.37,561.58,869.65,552.4Z"/><text class="cls-2" transform="translate(453.73 667.1)">CAMP</text></g></svg>