<svg xmlns="http://www.w3.org/2000/svg" id="Layer_1" data-name="Layer 1" viewBox="161.69 161.69 756.62 756.62"><defs><style>.cls-1{fill:#52ba63;}.cls-2{fill:#fff;fill-rule:evenodd;}</style></defs><rect class="cls-1" x="161.69" y="161.69" width="756.62" height="756.62" rx="125.74"/><path class="cls-2" d="M798,533.37c0,138.77-113.38,251.29-253.25,251.29a253.51,253.51,0,0,1-122.43-31.27L282.05,798l45.7-134.82a248.71,248.71,0,0,1-36.32-129.76c0-138.81,113.38-251.32,253.27-251.32S798,394.56,798,533.37ZM544.7,322.07c-117.44,0-212.94,94.77-212.94,211.3a209.07,209.07,0,0,0,40.56,123.88L345.73,735.7l81.81-26A213,213,0,0,0,544.7,744.64c117.39,0,212.92-94.78,212.92-211.27s-95.53-211.3-212.92-211.3ZM672.59,591.25c-1.57-2.58-5.71-4.12-11.9-7.2s-36.75-18-42.43-20-9.85-3.08-14,3.07-16,20-19.67,24.16-7.22,4.62-13.44,1.54-26.23-9.6-49.93-30.56c-18.45-16.35-30.91-36.5-34.55-42.67s-.35-9.48,2.72-12.56c2.8-2.77,6.22-7.19,9.32-10.77s4.14-6.19,6.21-10.31,1-7.69-.53-10.77-14-33.39-19.14-45.74-10.33-11.85-14-11.85A89.7,89.7,0,0,0,461,418.63s-12.44,1.54-18.13,7.71-21.72,21.07-21.72,51.36,22.23,59.61,25.33,63.7,42.94,68.35,106.06,93,63.12,16.43,74.51,15.39,36.72-14.89,41.9-29.28,5.18-26.72,3.64-29.27Zm0,0"/></svg>